<?xml version="1.0" encoding="UTF-8" standalone="no"?>
<svg
   xmlns:dc="http://purl.org/dc/elements/1.1/"
   xmlns:cc="http://creativecommons.org/ns#"
   xmlns:rdf="http://www.w3.org/1999/02/22-rdf-syntax-ns#"
   xmlns:svg="http://www.w3.org/2000/svg"
   xmlns="http://www.w3.org/2000/svg"
   id="svg8"
   version="1.1"
   viewBox="0 0 17.859375 9.9239693"
   height="9.9239693mm"
   width="17.859375mm">
  <defs
     id="defs2" />
  <metadata
     id="metadata5">
    <rdf:RDF>
      <cc:Work
         rdf:about="">
        <dc:format>image/svg+xml</dc:format>
        <dc:type
           rdf:resource="http://purl.org/dc/dcmitype/StillImage" />
        <dc:title></dc:title>
      </cc:Work>
    </rdf:RDF>
  </metadata>
  <g fill="#000"
     id="g837">
    <path
       style="fill:#inherit;stroke-width:0.264583"
       d="m 2.0007613,0.02746363 a 0.13229167,0.13229167 0 0 0 -0.161396,0 C 1.7626353,0.08566363 5.1128174e-4,1.4720836 5.1128174e-4,2.9008336 a 2.3203958,2.3203958 0 0 0 0.83079199826,1.82827 0.13229167,0.13229167 0 0 0 0.19843702,-0.16933 1.016,1.016 0 0 1 -0.14552002,-0.52917 1.905,1.905 0 0 1 1.03452002,-1.63512 1.905,1.905 0 0 1 1.034521,1.64835 1.016,1.016 0 0 1 -0.145521,0.52917 0.13229167,0.13229167 0 0 0 0.198438,0.16933 2.3203958,2.3203958 0 0 0 0.830791,-1.82827 c 0,-1.44198 -1.762125,-2.82839997 -1.836208,-2.88659997 z"
       id="path890" />
    <path
       id="polygon901"
       d="M 6.614584,1.7369948 7.4800361,1.4054719 7.5276611,0.48022403 8.4224819,0.72073033 9.0050944,5.3262932e-6 9.5877069,0.72073033 10.482528,0.48022403 10.530158,1.4054719 11.39561,1.7369948 10.890256,2.5135469 11.39561,3.2903636 10.530158,3.6216219 10.482528,4.5471344 9.5877069,4.3063635 9.0050944,5.0270885 8.4224819,4.3063635 7.5276611,4.5471344 7.4800361,3.6216219 6.614584,3.2903636 7.1199382,2.5135469 Z"
       style="fill:#inherit;stroke-width:0.264583" />
    <path
       style="stroke-width:0.264583"
       id="path915"
       d="m 4.7619533,6.6145873 h -1.5875 a 0.13229167,0.13229167 0 0 0 -0.09261,0.2249 l 0.433917,0.43656 -0.870479,0.87048 -0.605896,-0.60589 a 0.26458333,0.26458333 0 0 0 -0.373062,0 l -1.62718802,1.62718 a 0.13229167,0.13229167 0 0 0 0,0.18786 l 0.529167,0.52916 a 0.13229167,0.13229167 0 0 0 0.187854,0 l 1.09537502,-1.09802 0.605896,0.6059 a 0.26458333,0.26458333 0 0 0 0.373062,0 l 1.402292,-1.39965 0.436562,0.43657 a 0.13229167,0.13229167 0 0 0 0.224896,-0.0952 v -1.5875 a 0.13229167,0.13229167 0 0 0 -0.132291,-0.1323 z"
       fill="inherit" />
    <path
       style="stroke-width:0.264583"
       id="path929"
       d="m 13.229168,4.6300536 v -2.64583 h 1.322917 v 2.64583 z m 2.976549,2e-5 h -1.322916 v -3.30729 H 14.221342 L 15.544259,3.6262932e-6 16.867176,1.3227836 h -0.661459 z m 0.330743,-2e-5 v -1.32292 h 1.322916 v 1.32292 z"
       fill="inherit" />
  </g>
</svg>
